<?xml version="1.0" encoding="utf-8"?>
<!-- Generator: Adobe Illustrator 19.2.1, SVG Export Plug-In . SVG Version: 6.00 Build 0)  -->
<svg version="1.1" id="Layer_1" xmlns="http://www.w3.org/2000/svg" xmlns:xlink="http://www.w3.org/1999/xlink" x="0px" y="0px"
	 viewBox="0 0 99.6 99.6" style="enable-background:new 0 0 99.6 99.6;" xml:space="preserve">
<style type="text/css">
	.st0{fill:#B0C801;}
	.st1{fill:url(#SVGID_1_);}
	.st2{fill:url(#SVGID_2_);}
	.st3{fill:#5D5D5D;}
	.st4{fill:none;}
	.st5{enable-background:new    ;}
	.st6{fill:none;stroke:#5D5D5D;stroke-width:0.6485;stroke-miterlimit:10;}
</style>
<g>
	<circle class="st0" cx="49.8" cy="49.8" r="49.8"/>
	
		<linearGradient id="SVGID_1_" gradientUnits="userSpaceOnUse" x1="15.829" y1="-3895.7664" x2="75.9866" y2="-3835.6086" gradientTransform="matrix(1 0 0 1 0 3911.5952)">
		<stop  offset="0" style="stop-color:#F1FF6E"/>
		<stop  offset="0.1304" style="stop-color:#D1E007"/>
		<stop  offset="0.4993" style="stop-color:#AEC601"/>
		<stop  offset="1" style="stop-color:#7CA304"/>
	</linearGradient>
	<circle class="st1" cx="49.8" cy="49.8" r="49.8"/>
	<circle class="st0" cx="49.8" cy="49.8" r="45.4"/>
	
		<linearGradient id="SVGID_2_" gradientUnits="userSpaceOnUse" x1="81.3975" y1="-3830.1978" x2="3.6986" y2="-3907.8965" gradientTransform="matrix(1 0 0 1 0 3911.5952)">
		<stop  offset="0" style="stop-color:#F1FF6E"/>
		<stop  offset="0.1304" style="stop-color:#D1E007"/>
		<stop  offset="0.4993" style="stop-color:#AEC601"/>
		<stop  offset="1" style="stop-color:#7CA304"/>
	</linearGradient>
	<circle class="st2" cx="49.8" cy="49.8" r="45.4"/>
	<g>
		<path class="st3" d="M39.2,40.8c-0.3,0.4-0.7,0.9-1.1,1.3c-0.4,0.4-0.9,0.7-1.5,1s-1.2,0.5-1.8,0.7s-1.3,0.2-2,0.2
			c-1.3,0-2.5-0.2-3.6-0.7s-2.1-1.1-2.9-1.9c-0.8-0.8-1.4-1.8-1.9-2.9c-0.5-1.1-0.7-2.3-0.7-3.7c0-1.3,0.2-2.5,0.7-3.7
			c0.5-1.1,1.1-2.1,1.9-2.9s1.8-1.4,2.9-1.9s2.3-0.7,3.6-0.7c1.1,0,2.2,0.2,3.2,0.6c1.1,0.4,2,1.1,2.8,2.1l-1.5,1.2
			c-0.2-0.3-0.4-0.6-0.7-0.8c-0.3-0.3-0.7-0.5-1.1-0.7c-0.4-0.2-0.8-0.4-1.3-0.5s-0.9-0.2-1.4-0.2c-1.1,0-2.1,0.2-3,0.6
			s-1.6,1-2.2,1.6c-0.6,0.7-1.1,1.5-1.4,2.4s-0.5,1.9-0.5,2.9s0.2,2,0.5,2.9s0.8,1.7,1.4,2.4s1.4,1.2,2.2,1.6c0.9,0.4,1.9,0.6,3,0.6
			c0.5,0,0.9,0,1.4-0.1c0.4-0.1,0.9-0.2,1.3-0.4c0.4-0.2,0.8-0.5,1.2-0.8s0.7-0.8,1.1-1.3L39.2,40.8z"/>
		<path class="st3" d="M43.7,43.6h-2.1l7.6-17.4h1.7l7.6,17.4h-2.1L50,28.3L43.7,43.6z"/>
		<path class="st3" d="M64.4,43.6h-1.8V26.2H68c1.8,0,3.2,0.4,4.2,1.2c1,0.8,1.5,1.9,1.5,3.5c0,1.2-0.4,2.2-1.1,3.1
			c-0.8,0.8-1.9,1.3-3.3,1.4l5,8.2h-2.2l-4.8-8.1h-2.9C64.4,35.5,64.4,43.6,64.4,43.6z M64.4,33.9h3.1c0.8,0,1.5-0.1,2-0.2
			c0.5-0.2,1-0.4,1.3-0.7s0.6-0.6,0.7-1c0.1-0.4,0.2-0.8,0.2-1.2c0-0.4-0.1-0.8-0.2-1.2c-0.1-0.4-0.4-0.7-0.7-1
			c-0.3-0.3-0.8-0.5-1.3-0.7s-1.2-0.2-2-0.2h-3.1V33.9z"/>
	</g>
	<rect x="4.2" y="54.1" class="st4" width="90.6" height="24.7"/>
	<g class="st5">
		<path class="st3" d="M20.6,71h8.1v1.6h-9.9V55.3h1.8V71z"/>
		<path class="st3" d="M49,64c0,1.3-0.2,2.5-0.7,3.7c-0.5,1.1-1.1,2.1-1.9,2.9c-0.8,0.8-1.8,1.4-2.9,1.9c-1.1,0.5-2.3,0.7-3.6,0.7
			s-2.5-0.2-3.6-0.7c-1.1-0.5-2.1-1.1-2.9-1.9c-0.8-0.8-1.4-1.8-1.9-2.9c-0.5-1.1-0.7-2.3-0.7-3.7c0-1.3,0.2-2.5,0.7-3.7
			s1.1-2.1,1.9-2.9c0.8-0.8,1.8-1.4,2.9-1.9c1.1-0.5,2.3-0.7,3.6-0.7s2.5,0.2,3.6,0.7s2.1,1.1,2.9,1.9c0.8,0.8,1.4,1.8,1.9,2.9
			C48.8,61.4,49,62.6,49,64z M47.1,64c0-1-0.2-2-0.5-2.9c-0.3-0.9-0.8-1.7-1.4-2.4c-0.6-0.7-1.4-1.2-2.2-1.6c-0.9-0.4-1.9-0.6-3-0.6
			s-2.1,0.2-3,0.6c-0.9,0.4-1.6,1-2.2,1.6c-0.6,0.7-1.1,1.5-1.4,2.4C33,62,32.8,63,32.8,64s0.2,2,0.5,2.9c0.3,0.9,0.8,1.7,1.4,2.4
			c0.6,0.7,1.4,1.2,2.2,1.6s1.9,0.6,3,0.6s2.1-0.2,3-0.6s1.6-1,2.2-1.6c0.6-0.7,1.1-1.5,1.4-2.4C46.9,65.9,47.1,65,47.1,64z"/>
		<path class="st3" d="M55.3,72.6h-1.8V55.3H64v1.6h-8.7v5.9h8.1v1.6h-8.1V72.6z"/>
		<path class="st3" d="M73.7,72.6H72V56.9h-5.8v-1.6h13.4v1.6h-5.8V72.6z"/>
	</g>
	<line class="st6" x1="82.6" y1="49.2" x2="17.4" y2="49.2"/>
</g>
</svg>
