<?xml version="1.0" encoding="utf-8"?>
<!-- Generator: Adobe Illustrator 19.2.1, SVG Export Plug-In . SVG Version: 6.00 Build 0)  -->
<svg version="1.1" id="Layer_1" xmlns="http://www.w3.org/2000/svg" xmlns:xlink="http://www.w3.org/1999/xlink" x="0px" y="0px"
	 viewBox="0 0 111 63" style="enable-background:new 0 0 111 63;" xml:space="preserve">
<style type="text/css">
	.st0{fill:#FFFFFF;}
	.st1{fill:#5D5D5D;}
</style>
<rect class="st0" width="111" height="63"/>
<g>
	<path class="st1" d="M20.2,41h9.9v2H18.1V21.7h2.2V41z"/>
	<path class="st1" d="M56.1,32.3c0,1.6-0.3,3.1-0.8,4.5c-0.6,1.4-1.3,2.5-2.3,3.5s-2.2,1.8-3.5,2.3s-2.8,0.8-4.4,0.8
		s-3.1-0.3-4.4-0.8s-2.5-1.3-3.5-2.3c-1-1-1.8-2.2-2.3-3.5c-0.6-1.4-0.8-2.9-0.8-4.5c0-1.6,0.3-3.1,0.8-4.5c0.6-1.4,1.3-2.5,2.3-3.5
		c1-1,2.2-1.8,3.5-2.3c1.4-0.6,2.8-0.8,4.4-0.8s3.1,0.3,4.4,0.8c1.4,0.6,2.5,1.3,3.5,2.3s1.8,2.2,2.3,3.5
		C55.8,29.2,56.1,30.7,56.1,32.3z M53.8,32.3c0-1.2-0.2-2.4-0.6-3.5c-0.4-1.1-1-2.1-1.7-2.9s-1.7-1.5-2.8-2
		c-1.1-0.5-2.3-0.8-3.7-0.8s-2.6,0.3-3.7,0.8c-1.1,0.5-2,1.2-2.8,2s-1.3,1.8-1.7,2.9c-0.4,1.1-0.6,2.3-0.6,3.5
		c0,1.2,0.2,2.4,0.6,3.5c0.4,1.1,1,2.1,1.7,2.9s1.7,1.5,2.8,2c1.1,0.5,2.3,0.8,3.7,0.8s2.6-0.3,3.7-0.8c1.1-0.5,2-1.2,2.8-2
		s1.3-1.8,1.7-2.9C53.6,34.7,53.8,33.6,53.8,32.3z"/>
	<path class="st1" d="M64.9,43h-2.2V21.7h12.8v2H64.9v7.2h9.9v2h-9.9V43z"/>
	<path class="st1" d="M88.5,43h-2.2V23.7h-7.1v-2h16.4v2h-7.1V43z"/>
</g>
</svg>
