<?xml version="1.0" encoding="utf-8"?>
<!-- Generator: Adobe Illustrator 19.2.1, SVG Export Plug-In . SVG Version: 6.00 Build 0)  -->
<svg version="1.1" id="Layer_1" xmlns="http://www.w3.org/2000/svg" xmlns:xlink="http://www.w3.org/1999/xlink" x="0px" y="0px"
	 viewBox="0 0 79 64" style="enable-background:new 0 0 79 64;" xml:space="preserve">
<style type="text/css">
	.st0{fill:url(#SVGID_1_);}
	.st1{fill:#5D5D5D;}
	.st2{fill:url(#SVGID_2_);}
	.st3{fill:#B0C709;}
	.st4{fill:#7AC96A;}
</style>
<linearGradient id="SVGID_1_" gradientUnits="userSpaceOnUse" x1="-23.3333" y1="32" x2="85.0001" y2="32">
	<stop  offset="0" style="stop-color:#F1FF6E"/>
	<stop  offset="0.1304" style="stop-color:#D1E007"/>
	<stop  offset="0.4993" style="stop-color:#AEC601"/>
	<stop  offset="1" style="stop-color:#7CA304"/>
</linearGradient>
<rect class="st0" width="79" height="64"/>
<g>
	<path class="st1" d="M25.8,39c-0.4,0.5-0.8,1.1-1.3,1.5s-1.1,0.9-1.8,1.2c-0.7,0.4-1.4,0.6-2.2,0.8s-1.6,0.3-2.5,0.3
		c-1.6,0-3.1-0.3-4.4-0.8c-1.4-0.6-2.5-1.3-3.5-2.3c-1-1-1.8-2.2-2.3-3.5c-0.6-1.4-0.8-2.9-0.8-4.5c0-1.6,0.3-3.1,0.8-4.5
		c0.6-1.4,1.3-2.5,2.3-3.5c1-1,2.2-1.8,3.5-2.3s2.8-0.8,4.4-0.8c1.3,0,2.6,0.3,4,0.8c1.3,0.5,2.5,1.4,3.4,2.6l-1.9,1.4
		c-0.2-0.3-0.5-0.7-0.9-1c-0.4-0.3-0.8-0.6-1.3-0.9c-0.5-0.3-1-0.5-1.6-0.6s-1.1-0.2-1.7-0.2c-1.4,0-2.6,0.3-3.7,0.8
		c-1.1,0.5-2,1.2-2.8,2c-0.8,0.8-1.3,1.8-1.7,2.9c-0.4,1.1-0.6,2.3-0.6,3.5c0,1.2,0.2,2.4,0.6,3.5c0.4,1.1,1,2.1,1.7,2.9
		c0.8,0.8,1.7,1.5,2.8,2c1.1,0.5,2.3,0.8,3.7,0.8c0.6,0,1.1,0,1.7-0.2c0.6-0.1,1.1-0.3,1.6-0.5c0.5-0.2,1-0.6,1.5-1
		c0.5-0.4,0.9-0.9,1.3-1.5L25.8,39z"/>
	<path class="st1" d="M31.3,42.3h-2.5L38.1,21h2.1l9.3,21.3h-2.5l-2.3-5.6H33.7L31.3,42.3z M34.5,34.7h9.2l-4.6-11.2L34.5,34.7z"/>
	<path class="st1" d="M56.8,42.3h-2.2V21h6.6c2.2,0,3.9,0.5,5.1,1.4c1.3,0.9,1.9,2.4,1.9,4.3c0,1.5-0.5,2.7-1.4,3.7
		c-0.9,1-2.3,1.6-4,1.8l6.1,10.1h-2.6l-5.8-9.9h-3.6V42.3z M56.8,30.4h3.9c1,0,1.8-0.1,2.5-0.3c0.7-0.2,1.2-0.5,1.6-0.8
		s0.7-0.7,0.9-1.2c0.2-0.5,0.3-0.9,0.3-1.5c0-0.5-0.1-1-0.3-1.4c-0.2-0.5-0.5-0.8-0.9-1.2c-0.4-0.3-0.9-0.6-1.6-0.8
		c-0.7-0.2-1.5-0.3-2.5-0.3h-3.9V30.4z"/>
</g>
<linearGradient id="SVGID_2_" gradientUnits="userSpaceOnUse" x1="-23.3333" y1="32.9657" x2="85.0001" y2="32.9657">
	<stop  offset="0" style="stop-color:#F1FF6E"/>
	<stop  offset="0.1304" style="stop-color:#D1E007"/>
	<stop  offset="0.4993" style="stop-color:#AEC601"/>
	<stop  offset="1" style="stop-color:#7CA304"/>
</linearGradient>
<polyline class="st2" points="31.3,42.3 39.1,23.6 46.9,42.2 "/>
<path class="st3" d="M46.9,42.2"/>
<path class="st4" d="M31.3,42.3"/>
</svg>
